<?xml version="1.0" encoding="iso-8859-1"?>
<!-- Generator: Adobe Illustrator 19.1.0, SVG Export Plug-In . SVG Version: 6.00 Build 0)  -->
<svg version="1.1" id="Capa_1" xmlns="http://www.w3.org/2000/svg" xmlns:xlink="http://www.w3.org/1999/xlink" x="0px" y="0px"
	 viewBox="0 0 63.409 63.409" style="enable-background:new 0 0 63.409 63.409;" xml:space="preserve">
<g>
	<g id="group-35svg">
		<path id="path-1_28_" style="fill:#FF917B;" d="M51.794,6.054L10.063,30.603c-3.538,1.349-3.544,6.355-0.005,7.704l41.739,24.549
			c2.699,1.029,5.612-0.964,5.612-3.852V9.906C57.409,7.018,54.493,5.024,51.794,6.054z"/>
		<path id="path-2_26_" d="M47.572,60.631L47.572,60.631c-0.697,0-1.379-0.126-2.028-0.373c-0.077-0.029-0.151-0.065-0.223-0.107
			L3.462,35.659C1.355,34.8,0.001,32.79,0,30.502c0-2.329,1.381-4.376,3.529-5.252L45.286,0.76c0.071-0.042,0.146-0.078,0.224-0.108
			c0.649-0.248,1.332-0.373,2.032-0.373c3.18,0,5.867,2.577,5.867,5.627v49.098c0,1.544-0.644,2.984-1.815,4.056
			C50.503,60.058,49.038,60.631,47.572,60.631z M46.717,57.492c0.275,0.092,0.562,0.139,0.855,0.139l0,0
			c0.725,0,1.452-0.286,1.996-0.784c0.542-0.496,0.841-1.152,0.841-1.843V5.906c0.001-1.905-2.162-3.008-3.725-2.488L4.947,27.896
			c-0.071,0.042-0.146,0.079-0.224,0.108C3.453,28.488,3,29.611,3,30.501c0.001,1.11,0.619,2.01,1.654,2.404
			c0.078,0.03,0.152,0.066,0.223,0.107L46.717,57.492z"/>
		<path id="path-3_8_" d="M61.909,58.042c-0.828,0-1.5-0.672-1.5-1.5v-52c0-0.828,0.672-1.5,1.5-1.5c0.829,0,1.5,0.672,1.5,1.5v52
			C63.409,57.37,62.738,58.042,61.909,58.042z"/>
	</g>
</g>
<g>
</g>
<g>
</g>
<g>
</g>
<g>
</g>
<g>
</g>
<g>
</g>
<g>
</g>
<g>
</g>
<g>
</g>
<g>
</g>
<g>
</g>
<g>
</g>
<g>
</g>
<g>
</g>
<g>
</g>
</svg>
